<?xml version="1.0" encoding="utf-8"?>
<svg xmlns="http://www.w3.org/2000/svg" xmlns:xlink="http://www.w3.org/1999/xlink" width="600" height="400" viewBox="0 0 2400 1600">
<defs>
  <clipPath id="clip120">
    <rect x="0" y="0" width="2400" height="1600"/>
  </clipPath>
</defs>
<path clip-path="url(#clip120)" d="M0 1600 L2400 1600 L2400 0 L0 0  Z" fill="#ffec8b" fill-rule="evenodd" fill-opacity="1"/>
<defs>
  <clipPath id="clip121">
    <rect x="480" y="0" width="1681" height="1600"/>
  </clipPath>
</defs>
<path clip-path="url(#clip120)" d="M156.598 1486.45 L2352.76 1486.45 L2352.76 123.472 L156.598 123.472  Z" fill="#ffec8b" fill-rule="evenodd" fill-opacity="1"/>
<defs>
  <clipPath id="clip122">
    <rect x="156" y="123" width="2197" height="1364"/>
  </clipPath>
</defs>
<polyline clip-path="url(#clip122)" style="stroke:#000000; stroke-linecap:round; stroke-linejoin:round; stroke-width:2; stroke-opacity:0.1; fill:none" points="483.135,1486.45 483.135,123.472 "/>
<polyline clip-path="url(#clip122)" style="stroke:#000000; stroke-linecap:round; stroke-linejoin:round; stroke-width:2; stroke-opacity:0.1; fill:none" points="997.496,1486.45 997.496,123.472 "/>
<polyline clip-path="url(#clip122)" style="stroke:#000000; stroke-linecap:round; stroke-linejoin:round; stroke-width:2; stroke-opacity:0.1; fill:none" points="1511.86,1486.45 1511.86,123.472 "/>
<polyline clip-path="url(#clip122)" style="stroke:#000000; stroke-linecap:round; stroke-linejoin:round; stroke-width:2; stroke-opacity:0.1; fill:none" points="2026.22,1486.45 2026.22,123.472 "/>
<polyline clip-path="url(#clip120)" style="stroke:#000000; stroke-linecap:round; stroke-linejoin:round; stroke-width:4; stroke-opacity:1; fill:none" points="156.598,1486.45 2352.76,1486.45 "/>
<polyline clip-path="url(#clip120)" style="stroke:#000000; stroke-linecap:round; stroke-linejoin:round; stroke-width:4; stroke-opacity:1; fill:none" points="483.135,1486.45 483.135,1467.55 "/>
<polyline clip-path="url(#clip120)" style="stroke:#000000; stroke-linecap:round; stroke-linejoin:round; stroke-width:4; stroke-opacity:1; fill:none" points="997.496,1486.45 997.496,1467.55 "/>
<polyline clip-path="url(#clip120)" style="stroke:#000000; stroke-linecap:round; stroke-linejoin:round; stroke-width:4; stroke-opacity:1; fill:none" points="1511.86,1486.45 1511.86,1467.55 "/>
<polyline clip-path="url(#clip120)" style="stroke:#000000; stroke-linecap:round; stroke-linejoin:round; stroke-width:4; stroke-opacity:1; fill:none" points="2026.22,1486.45 2026.22,1467.55 "/>
<path clip-path="url(#clip120)" d="M447.059 1526.9 Q446.342 1526.49 445.485 1526.3 Q444.652 1526.09 443.633 1526.09 Q440.022 1526.09 438.078 1528.45 Q436.156 1530.79 436.156 1535.19 L436.156 1548.85 L431.874 1548.85 L431.874 1522.92 L436.156 1522.92 L436.156 1526.95 Q437.499 1524.59 439.652 1523.45 Q441.804 1522.3 444.883 1522.3 Q445.323 1522.3 445.855 1522.37 Q446.388 1522.41 447.036 1522.53 L447.059 1526.9 Z" fill="#000000" fill-rule="nonzero" fill-opacity="1" /><path clip-path="url(#clip120)" d="M471.226 1556.72 L471.226 1560.03 L446.596 1560.03 L446.596 1556.72 L471.226 1556.72 Z" fill="#000000" fill-rule="nonzero" fill-opacity="1" /><path clip-path="url(#clip120)" d="M501.295 1516.95 L501.295 1521.88 Q498.934 1519.68 496.249 1518.59 Q493.587 1517.51 490.577 1517.51 Q484.651 1517.51 481.503 1521.14 Q478.355 1524.75 478.355 1531.6 Q478.355 1538.43 481.503 1542.07 Q484.651 1545.68 490.577 1545.68 Q493.587 1545.68 496.249 1544.59 Q498.934 1543.5 501.295 1541.3 L501.295 1546.19 Q498.841 1547.85 496.087 1548.69 Q493.355 1549.52 490.3 1549.52 Q482.452 1549.52 477.939 1544.73 Q473.425 1539.91 473.425 1531.6 Q473.425 1523.27 477.939 1518.48 Q482.452 1513.66 490.3 1513.66 Q493.401 1513.66 496.133 1514.5 Q498.888 1515.31 501.295 1516.95 Z" fill="#000000" fill-rule="nonzero" fill-opacity="1" /><path clip-path="url(#clip120)" d="M534.397 1516.95 L534.397 1521.88 Q532.035 1519.68 529.35 1518.59 Q526.688 1517.51 523.679 1517.51 Q517.753 1517.51 514.605 1521.14 Q511.457 1524.75 511.457 1531.6 Q511.457 1538.43 514.605 1542.07 Q517.753 1545.68 523.679 1545.68 Q526.688 1545.68 529.35 1544.59 Q532.035 1543.5 534.397 1541.3 L534.397 1546.19 Q531.943 1547.85 529.188 1548.69 Q526.457 1549.52 523.401 1549.52 Q515.554 1549.52 511.04 1544.73 Q506.526 1539.91 506.526 1531.6 Q506.526 1523.27 511.04 1518.48 Q515.554 1513.66 523.401 1513.66 Q526.503 1513.66 529.235 1514.5 Q531.989 1515.31 534.397 1516.95 Z" fill="#000000" fill-rule="nonzero" fill-opacity="1" /><path clip-path="url(#clip120)" d="M959.835 1526.9 Q959.117 1526.49 958.261 1526.3 Q957.427 1526.09 956.409 1526.09 Q952.798 1526.09 950.853 1528.45 Q948.932 1530.79 948.932 1535.19 L948.932 1548.85 L944.65 1548.85 L944.65 1522.92 L948.932 1522.92 L948.932 1526.95 Q950.275 1524.59 952.427 1523.45 Q954.58 1522.3 957.659 1522.3 Q958.099 1522.3 958.631 1522.37 Q959.163 1522.41 959.811 1522.53 L959.835 1526.9 Z" fill="#000000" fill-rule="nonzero" fill-opacity="1" /><path clip-path="url(#clip120)" d="M984.001 1556.72 L984.001 1560.03 L959.372 1560.03 L959.372 1556.72 L984.001 1556.72 Z" fill="#000000" fill-rule="nonzero" fill-opacity="1" /><path clip-path="url(#clip120)" d="M1014.07 1516.95 L1014.07 1521.88 Q1011.71 1519.68 1009.02 1518.59 Q1006.36 1517.51 1003.35 1517.51 Q997.427 1517.51 994.279 1521.14 Q991.131 1524.75 991.131 1531.6 Q991.131 1538.43 994.279 1542.07 Q997.427 1545.68 1003.35 1545.68 Q1006.36 1545.68 1009.02 1544.59 Q1011.71 1543.5 1014.07 1541.3 L1014.07 1546.19 Q1011.62 1547.85 1008.86 1548.69 Q1006.13 1549.52 1003.08 1549.52 Q995.228 1549.52 990.714 1544.73 Q986.2 1539.91 986.2 1531.6 Q986.2 1523.27 990.714 1518.48 Q995.228 1513.66 1003.08 1513.66 Q1006.18 1513.66 1008.91 1514.5 Q1011.66 1515.31 1014.07 1516.95 Z" fill="#000000" fill-rule="nonzero" fill-opacity="1" /><path clip-path="url(#clip120)" d="M1025.97 1518.13 L1025.97 1545.01 L1031.62 1545.01 Q1038.77 1545.01 1042.08 1541.76 Q1045.41 1538.52 1045.41 1531.53 Q1045.41 1524.59 1042.08 1521.37 Q1038.77 1518.13 1031.62 1518.13 L1025.97 1518.13 M1021.29 1514.29 L1030.9 1514.29 Q1040.95 1514.29 1045.64 1518.48 Q1050.34 1522.64 1050.34 1531.53 Q1050.34 1540.47 1045.62 1544.66 Q1040.9 1548.85 1030.9 1548.85 L1021.29 1548.85 L1021.29 1514.29 Z" fill="#000000" fill-rule="nonzero" fill-opacity="1" /><path clip-path="url(#clip120)" d="M1474.08 1526.9 Q1473.36 1526.49 1472.51 1526.3 Q1471.67 1526.09 1470.65 1526.09 Q1467.04 1526.09 1465.1 1528.45 Q1463.18 1530.79 1463.18 1535.19 L1463.18 1548.85 L1458.89 1548.85 L1458.89 1522.92 L1463.18 1522.92 L1463.18 1526.95 Q1464.52 1524.59 1466.67 1523.45 Q1468.83 1522.3 1471.9 1522.3 Q1472.34 1522.3 1472.88 1522.37 Q1473.41 1522.41 1474.06 1522.53 L1474.08 1526.9 Z" fill="#000000" fill-rule="nonzero" fill-opacity="1" /><path clip-path="url(#clip120)" d="M1498.25 1556.72 L1498.25 1560.03 L1473.62 1560.03 L1473.62 1556.72 L1498.25 1556.72 Z" fill="#000000" fill-rule="nonzero" fill-opacity="1" /><path clip-path="url(#clip120)" d="M1507.11 1518.13 L1507.11 1545.01 L1512.76 1545.01 Q1519.91 1545.01 1523.22 1541.76 Q1526.56 1538.52 1526.56 1531.53 Q1526.56 1524.59 1523.22 1521.37 Q1519.91 1518.13 1512.76 1518.13 L1507.11 1518.13 M1502.44 1514.29 L1512.04 1514.29 Q1522.09 1514.29 1526.79 1518.48 Q1531.49 1522.64 1531.49 1531.53 Q1531.49 1540.47 1526.76 1544.66 Q1522.04 1548.85 1512.04 1548.85 L1502.44 1548.85 L1502.44 1514.29 Z" fill="#000000" fill-rule="nonzero" fill-opacity="1" /><path clip-path="url(#clip120)" d="M1564.82 1516.95 L1564.82 1521.88 Q1562.46 1519.68 1559.77 1518.59 Q1557.11 1517.51 1554.1 1517.51 Q1548.18 1517.51 1545.03 1521.14 Q1541.88 1524.75 1541.88 1531.6 Q1541.88 1538.43 1545.03 1542.07 Q1548.18 1545.68 1554.1 1545.68 Q1557.11 1545.68 1559.77 1544.59 Q1562.46 1543.5 1564.82 1541.3 L1564.82 1546.19 Q1562.37 1547.85 1559.61 1548.69 Q1556.88 1549.52 1553.83 1549.52 Q1545.98 1549.52 1541.46 1544.73 Q1536.95 1539.91 1536.95 1531.6 Q1536.95 1523.27 1541.46 1518.48 Q1545.98 1513.66 1553.83 1513.66 Q1556.93 1513.66 1559.66 1514.5 Q1562.41 1515.31 1564.82 1516.95 Z" fill="#000000" fill-rule="nonzero" fill-opacity="1" /><path clip-path="url(#clip120)" d="M1986.86 1526.9 Q1986.14 1526.49 1985.28 1526.3 Q1984.45 1526.09 1983.43 1526.09 Q1979.82 1526.09 1977.87 1528.45 Q1975.95 1530.79 1975.95 1535.19 L1975.95 1548.85 L1971.67 1548.85 L1971.67 1522.92 L1975.95 1522.92 L1975.95 1526.95 Q1977.3 1524.59 1979.45 1523.45 Q1981.6 1522.3 1984.68 1522.3 Q1985.12 1522.3 1985.65 1522.37 Q1986.18 1522.41 1986.83 1522.53 L1986.86 1526.9 Z" fill="#000000" fill-rule="nonzero" fill-opacity="1" /><path clip-path="url(#clip120)" d="M2011.02 1556.72 L2011.02 1560.03 L1986.39 1560.03 L1986.39 1556.72 L2011.02 1556.72 Z" fill="#000000" fill-rule="nonzero" fill-opacity="1" /><path clip-path="url(#clip120)" d="M2019.89 1518.13 L2019.89 1545.01 L2025.54 1545.01 Q2032.69 1545.01 2036 1541.76 Q2039.33 1538.52 2039.33 1531.53 Q2039.33 1524.59 2036 1521.37 Q2032.69 1518.13 2025.54 1518.13 L2019.89 1518.13 M2015.21 1514.29 L2024.82 1514.29 Q2034.86 1514.29 2039.56 1518.48 Q2044.26 1522.64 2044.26 1531.53 Q2044.26 1540.47 2039.54 1544.66 Q2034.82 1548.85 2024.82 1548.85 L2015.21 1548.85 L2015.21 1514.29 Z" fill="#000000" fill-rule="nonzero" fill-opacity="1" /><path clip-path="url(#clip120)" d="M2056.39 1518.13 L2056.39 1545.01 L2062.04 1545.01 Q2069.19 1545.01 2072.5 1541.76 Q2075.84 1538.52 2075.84 1531.53 Q2075.84 1524.59 2072.5 1521.37 Q2069.19 1518.13 2062.04 1518.13 L2056.39 1518.13 M2051.72 1514.29 L2061.32 1514.29 Q2071.37 1514.29 2076.07 1518.48 Q2080.77 1522.64 2080.77 1531.53 Q2080.77 1540.47 2076.04 1544.66 Q2071.32 1548.85 2061.32 1548.85 L2051.72 1548.85 L2051.72 1514.29 Z" fill="#000000" fill-rule="nonzero" fill-opacity="1" /><polyline clip-path="url(#clip122)" style="stroke:#000000; stroke-linecap:round; stroke-linejoin:round; stroke-width:2; stroke-opacity:0.1; fill:none" points="156.598,1486.45 2352.76,1486.45 "/>
<polyline clip-path="url(#clip122)" style="stroke:#000000; stroke-linecap:round; stroke-linejoin:round; stroke-width:2; stroke-opacity:0.1; fill:none" points="156.598,1213.85 2352.76,1213.85 "/>
<polyline clip-path="url(#clip122)" style="stroke:#000000; stroke-linecap:round; stroke-linejoin:round; stroke-width:2; stroke-opacity:0.1; fill:none" points="156.598,941.258 2352.76,941.258 "/>
<polyline clip-path="url(#clip122)" style="stroke:#000000; stroke-linecap:round; stroke-linejoin:round; stroke-width:2; stroke-opacity:0.1; fill:none" points="156.598,668.662 2352.76,668.662 "/>
<polyline clip-path="url(#clip122)" style="stroke:#000000; stroke-linecap:round; stroke-linejoin:round; stroke-width:2; stroke-opacity:0.1; fill:none" points="156.598,396.067 2352.76,396.067 "/>
<polyline clip-path="url(#clip122)" style="stroke:#000000; stroke-linecap:round; stroke-linejoin:round; stroke-width:2; stroke-opacity:0.1; fill:none" points="156.598,123.472 2352.76,123.472 "/>
<polyline clip-path="url(#clip120)" style="stroke:#000000; stroke-linecap:round; stroke-linejoin:round; stroke-width:4; stroke-opacity:1; fill:none" points="156.598,1486.45 156.598,123.472 "/>
<polyline clip-path="url(#clip120)" style="stroke:#000000; stroke-linecap:round; stroke-linejoin:round; stroke-width:4; stroke-opacity:1; fill:none" points="156.598,1486.45 175.496,1486.45 "/>
<polyline clip-path="url(#clip120)" style="stroke:#000000; stroke-linecap:round; stroke-linejoin:round; stroke-width:4; stroke-opacity:1; fill:none" points="156.598,1213.85 175.496,1213.85 "/>
<polyline clip-path="url(#clip120)" style="stroke:#000000; stroke-linecap:round; stroke-linejoin:round; stroke-width:4; stroke-opacity:1; fill:none" points="156.598,941.258 175.496,941.258 "/>
<polyline clip-path="url(#clip120)" style="stroke:#000000; stroke-linecap:round; stroke-linejoin:round; stroke-width:4; stroke-opacity:1; fill:none" points="156.598,668.662 175.496,668.662 "/>
<polyline clip-path="url(#clip120)" style="stroke:#000000; stroke-linecap:round; stroke-linejoin:round; stroke-width:4; stroke-opacity:1; fill:none" points="156.598,396.067 175.496,396.067 "/>
<polyline clip-path="url(#clip120)" style="stroke:#000000; stroke-linecap:round; stroke-linejoin:round; stroke-width:4; stroke-opacity:1; fill:none" points="156.598,123.472 175.496,123.472 "/>
<path clip-path="url(#clip120)" d="M63.4226 1472.25 Q59.8115 1472.25 57.9828 1475.81 Q56.1773 1479.35 56.1773 1486.48 Q56.1773 1493.59 57.9828 1497.15 Q59.8115 1500.7 63.4226 1500.7 Q67.0569 1500.7 68.8624 1497.15 Q70.6911 1493.59 70.6911 1486.48 Q70.6911 1479.35 68.8624 1475.81 Q67.0569 1472.25 63.4226 1472.25 M63.4226 1468.54 Q69.2328 1468.54 72.2883 1473.15 Q75.367 1477.73 75.367 1486.48 Q75.367 1495.21 72.2883 1499.82 Q69.2328 1504.4 63.4226 1504.4 Q57.6125 1504.4 54.5338 1499.82 Q51.4782 1495.21 51.4782 1486.48 Q51.4782 1477.73 54.5338 1473.15 Q57.6125 1468.54 63.4226 1468.54 Z" fill="#000000" fill-rule="nonzero" fill-opacity="1" /><path clip-path="url(#clip120)" d="M83.5845 1497.85 L88.4688 1497.85 L88.4688 1503.73 L83.5845 1503.73 L83.5845 1497.85 Z" fill="#000000" fill-rule="nonzero" fill-opacity="1" /><path clip-path="url(#clip120)" d="M108.654 1472.25 Q105.043 1472.25 103.214 1475.81 Q101.409 1479.35 101.409 1486.48 Q101.409 1493.59 103.214 1497.15 Q105.043 1500.7 108.654 1500.7 Q112.288 1500.7 114.094 1497.15 Q115.922 1493.59 115.922 1486.48 Q115.922 1479.35 114.094 1475.81 Q112.288 1472.25 108.654 1472.25 M108.654 1468.54 Q114.464 1468.54 117.52 1473.15 Q120.598 1477.73 120.598 1486.48 Q120.598 1495.21 117.52 1499.82 Q114.464 1504.4 108.654 1504.4 Q102.844 1504.4 99.765 1499.82 Q96.7095 1495.21 96.7095 1486.48 Q96.7095 1477.73 99.765 1473.15 Q102.844 1468.54 108.654 1468.54 Z" fill="#000000" fill-rule="nonzero" fill-opacity="1" /><path clip-path="url(#clip120)" d="M65.0198 1199.65 Q61.4087 1199.65 59.58 1203.22 Q57.7745 1206.76 57.7745 1213.89 Q57.7745 1220.99 59.58 1224.56 Q61.4087 1228.1 65.0198 1228.1 Q68.6541 1228.1 70.4596 1224.56 Q72.2883 1220.99 72.2883 1213.89 Q72.2883 1206.76 70.4596 1203.22 Q68.6541 1199.65 65.0198 1199.65 M65.0198 1195.95 Q70.83 1195.95 73.8855 1200.55 Q76.9642 1205.14 76.9642 1213.89 Q76.9642 1222.61 73.8855 1227.22 Q70.83 1231.8 65.0198 1231.8 Q59.2097 1231.8 56.131 1227.22 Q53.0754 1222.61 53.0754 1213.89 Q53.0754 1205.14 56.131 1200.55 Q59.2097 1195.95 65.0198 1195.95 Z" fill="#000000" fill-rule="nonzero" fill-opacity="1" /><path clip-path="url(#clip120)" d="M85.1818 1225.25 L90.066 1225.25 L90.066 1231.13 L85.1818 1231.13 L85.1818 1225.25 Z" fill="#000000" fill-rule="nonzero" fill-opacity="1" /><path clip-path="url(#clip120)" d="M104.279 1227.2 L120.598 1227.2 L120.598 1231.13 L98.6539 1231.13 L98.6539 1227.2 Q101.316 1224.44 105.899 1219.81 Q110.506 1215.16 111.686 1213.82 Q113.932 1211.29 114.811 1209.56 Q115.714 1207.8 115.714 1206.11 Q115.714 1203.36 113.77 1201.62 Q111.848 1199.88 108.746 1199.88 Q106.547 1199.88 104.094 1200.65 Q101.663 1201.41 98.8854 1202.96 L98.8854 1198.24 Q101.709 1197.11 104.163 1196.53 Q106.617 1195.95 108.654 1195.95 Q114.024 1195.95 117.219 1198.63 Q120.413 1201.32 120.413 1205.81 Q120.413 1207.94 119.603 1209.86 Q118.816 1211.76 116.709 1214.35 Q116.131 1215.02 113.029 1218.24 Q109.927 1221.43 104.279 1227.2 Z" fill="#000000" fill-rule="nonzero" fill-opacity="1" /><path clip-path="url(#clip120)" d="M62.9365 927.056 Q59.3254 927.056 57.4967 930.621 Q55.6912 934.163 55.6912 941.292 Q55.6912 948.399 57.4967 951.964 Q59.3254 955.505 62.9365 955.505 Q66.5707 955.505 68.3763 951.964 Q70.205 948.399 70.205 941.292 Q70.205 934.163 68.3763 930.621 Q66.5707 927.056 62.9365 927.056 M62.9365 923.353 Q68.7467 923.353 71.8022 927.959 Q74.8809 932.542 74.8809 941.292 Q74.8809 950.019 71.8022 954.626 Q68.7467 959.209 62.9365 959.209 Q57.1264 959.209 54.0477 954.626 Q50.9921 950.019 50.9921 941.292 Q50.9921 932.542 54.0477 927.959 Q57.1264 923.353 62.9365 923.353 Z" fill="#000000" fill-rule="nonzero" fill-opacity="1" /><path clip-path="url(#clip120)" d="M83.0984 952.658 L87.9827 952.658 L87.9827 958.538 L83.0984 958.538 L83.0984 952.658 Z" fill="#000000" fill-rule="nonzero" fill-opacity="1" /><path clip-path="url(#clip120)" d="M111.015 928.052 L99.2095 946.501 L111.015 946.501 L111.015 928.052 M109.788 923.978 L115.668 923.978 L115.668 946.501 L120.598 946.501 L120.598 950.389 L115.668 950.389 L115.668 958.538 L111.015 958.538 L111.015 950.389 L95.4132 950.389 L95.4132 945.876 L109.788 923.978 Z" fill="#000000" fill-rule="nonzero" fill-opacity="1" /><path clip-path="url(#clip120)" d="M63.2606 654.461 Q59.6495 654.461 57.8208 658.026 Q56.0152 661.568 56.0152 668.697 Q56.0152 675.804 57.8208 679.368 Q59.6495 682.91 63.2606 682.91 Q66.8948 682.91 68.7004 679.368 Q70.5291 675.804 70.5291 668.697 Q70.5291 661.568 68.7004 658.026 Q66.8948 654.461 63.2606 654.461 M63.2606 650.757 Q69.0707 650.757 72.1263 655.364 Q75.205 659.947 75.205 668.697 Q75.205 677.424 72.1263 682.03 Q69.0707 686.614 63.2606 686.614 Q57.4504 686.614 54.3717 682.03 Q51.3162 677.424 51.3162 668.697 Q51.3162 659.947 54.3717 655.364 Q57.4504 650.757 63.2606 650.757 Z" fill="#000000" fill-rule="nonzero" fill-opacity="1" /><path clip-path="url(#clip120)" d="M83.4225 680.063 L88.3067 680.063 L88.3067 685.942 L83.4225 685.942 L83.4225 680.063 Z" fill="#000000" fill-rule="nonzero" fill-opacity="1" /><path clip-path="url(#clip120)" d="M109.071 666.799 Q105.922 666.799 104.071 668.952 Q102.242 671.105 102.242 674.855 Q102.242 678.581 104.071 680.757 Q105.922 682.91 109.071 682.91 Q112.219 682.91 114.047 680.757 Q115.899 678.581 115.899 674.855 Q115.899 671.105 114.047 668.952 Q112.219 666.799 109.071 666.799 M118.353 652.146 L118.353 656.406 Q116.594 655.572 114.788 655.132 Q113.006 654.693 111.246 654.693 Q106.617 654.693 104.163 657.818 Q101.733 660.943 101.385 667.262 Q102.751 665.248 104.811 664.183 Q106.871 663.095 109.348 663.095 Q114.557 663.095 117.566 666.267 Q120.598 669.415 120.598 674.855 Q120.598 680.179 117.45 683.396 Q114.302 686.614 109.071 686.614 Q103.075 686.614 99.9039 682.03 Q96.7326 677.424 96.7326 668.697 Q96.7326 660.503 100.621 655.642 Q104.51 650.757 111.061 650.757 Q112.82 650.757 114.603 651.105 Q116.408 651.452 118.353 652.146 Z" fill="#000000" fill-rule="nonzero" fill-opacity="1" /><path clip-path="url(#clip120)" d="M63.5152 381.866 Q59.9041 381.866 58.0754 385.431 Q56.2699 388.972 56.2699 396.102 Q56.2699 403.208 58.0754 406.773 Q59.9041 410.315 63.5152 410.315 Q67.1494 410.315 68.955 406.773 Q70.7837 403.208 70.7837 396.102 Q70.7837 388.972 68.955 385.431 Q67.1494 381.866 63.5152 381.866 M63.5152 378.162 Q69.3254 378.162 72.3809 382.769 Q75.4596 387.352 75.4596 396.102 Q75.4596 404.829 72.3809 409.435 Q69.3254 414.019 63.5152 414.019 Q57.7051 414.019 54.6264 409.435 Q51.5708 404.829 51.5708 396.102 Q51.5708 387.352 54.6264 382.769 Q57.7051 378.162 63.5152 378.162 Z" fill="#000000" fill-rule="nonzero" fill-opacity="1" /><path clip-path="url(#clip120)" d="M83.6771 407.468 L88.5614 407.468 L88.5614 413.347 L83.6771 413.347 L83.6771 407.468 Z" fill="#000000" fill-rule="nonzero" fill-opacity="1" /><path clip-path="url(#clip120)" d="M108.746 396.935 Q105.413 396.935 103.492 398.718 Q101.594 400.5 101.594 403.625 Q101.594 406.75 103.492 408.532 Q105.413 410.315 108.746 410.315 Q112.08 410.315 114.001 408.532 Q115.922 406.727 115.922 403.625 Q115.922 400.5 114.001 398.718 Q112.103 396.935 108.746 396.935 M104.071 394.945 Q101.061 394.204 99.3715 392.144 Q97.7048 390.084 97.7048 387.121 Q97.7048 382.977 100.645 380.57 Q103.608 378.162 108.746 378.162 Q113.908 378.162 116.848 380.57 Q119.788 382.977 119.788 387.121 Q119.788 390.084 118.098 392.144 Q116.432 394.204 113.445 394.945 Q116.825 395.732 118.7 398.023 Q120.598 400.315 120.598 403.625 Q120.598 408.648 117.52 411.333 Q114.464 414.019 108.746 414.019 Q103.029 414.019 99.9502 411.333 Q96.8947 408.648 96.8947 403.625 Q96.8947 400.315 98.7928 398.023 Q100.691 395.732 104.071 394.945 M102.358 387.56 Q102.358 390.246 104.024 391.75 Q105.714 393.255 108.746 393.255 Q111.756 393.255 113.445 391.75 Q115.158 390.246 115.158 387.56 Q115.158 384.875 113.445 383.371 Q111.756 381.866 108.746 381.866 Q105.714 381.866 104.024 383.371 Q102.358 384.875 102.358 387.56 Z" fill="#000000" fill-rule="nonzero" fill-opacity="1" /><path clip-path="url(#clip120)" d="M54.2328 136.817 L61.8717 136.817 L61.8717 110.451 L53.5616 112.118 L53.5616 107.859 L61.8254 106.192 L66.5013 106.192 L66.5013 136.817 L74.1402 136.817 L74.1402 140.752 L54.2328 140.752 L54.2328 136.817 Z" fill="#000000" fill-rule="nonzero" fill-opacity="1" /><path clip-path="url(#clip120)" d="M83.5845 134.873 L88.4688 134.873 L88.4688 140.752 L83.5845 140.752 L83.5845 134.873 Z" fill="#000000" fill-rule="nonzero" fill-opacity="1" /><path clip-path="url(#clip120)" d="M108.654 109.271 Q105.043 109.271 103.214 112.836 Q101.409 116.377 101.409 123.507 Q101.409 130.613 103.214 134.178 Q105.043 137.72 108.654 137.72 Q112.288 137.72 114.094 134.178 Q115.922 130.613 115.922 123.507 Q115.922 116.377 114.094 112.836 Q112.288 109.271 108.654 109.271 M108.654 105.567 Q114.464 105.567 117.52 110.174 Q120.598 114.757 120.598 123.507 Q120.598 132.234 117.52 136.84 Q114.464 141.423 108.654 141.423 Q102.844 141.423 99.765 136.84 Q96.7095 132.234 96.7095 123.507 Q96.7095 114.757 99.765 110.174 Q102.844 105.567 108.654 105.567 Z" fill="#000000" fill-rule="nonzero" fill-opacity="1" /><path clip-path="url(#clip120)" d="M1088.93 69.7809 L1088.93 89.8329 L1081.44 89.8329 L1081.44 27.4894 Q1081.44 9.01731 1098.7 9.01731 Q1116.28 9.01731 1116.28 24.6133 Q1116.28 35.7128 1109.31 39.7637 Q1120.65 43.4095 1120.65 54.2254 Q1120.65 73.4267 1101.13 73.4267 Q1092.54 73.4267 1088.93 69.7809 M1088.93 60.0587 Q1093.43 67.0668 1101.41 67.0668 Q1113.08 67.0668 1113.08 54.3469 Q1113.08 42.9234 1094.28 43.8146 L1094.28 36.928 Q1108.99 36.928 1108.99 23.9651 Q1108.99 15.0937 1099.51 15.0937 Q1088.93 15.0937 1088.93 27.7325 L1088.93 60.0587 Z" fill="#000000" fill-rule="nonzero" fill-opacity="1" /><path clip-path="url(#clip120)" d="M1161.77 34.9026 L1213.7 34.9026 L1213.7 41.7081 L1161.77 41.7081 L1161.77 34.9026 M1161.77 51.4303 L1213.7 51.4303 L1213.7 58.3168 L1161.77 58.3168 L1161.77 51.4303 Z" fill="#000000" fill-rule="nonzero" fill-opacity="1" /><path clip-path="url(#clip120)" d="M1259.15 65.6895 L1272.52 65.6895 L1272.52 19.5497 L1257.98 22.4663 L1257.98 15.0127 L1272.44 12.096 L1280.62 12.096 L1280.62 65.6895 L1293.99 65.6895 L1293.99 72.576 L1259.15 72.576 L1259.15 65.6895 Z" fill="#000000" fill-rule="nonzero" fill-opacity="1" /><path clip-path="url(#clip120)" d="M1310.52 62.2867 L1319.07 62.2867 L1319.07 72.576 L1310.52 72.576 L1310.52 62.2867 Z" fill="#000000" fill-rule="nonzero" fill-opacity="1" /><path clip-path="url(#clip120)" d="M1343.94 65.6895 L1372.5 65.6895 L1372.5 72.576 L1334.1 72.576 L1334.1 65.6895 Q1338.75 60.8689 1346.77 52.7671 Q1354.84 44.6248 1356.9 42.2752 Q1360.83 37.8598 1362.37 34.8216 Q1363.95 31.7429 1363.95 28.7857 Q1363.95 23.9651 1360.55 20.927 Q1357.19 17.8888 1351.76 17.8888 Q1347.91 17.8888 1343.61 19.2256 Q1339.36 20.5624 1334.5 23.2765 L1334.5 15.0127 Q1339.44 13.0277 1343.74 12.015 Q1348.03 11.0023 1351.59 11.0023 Q1360.99 11.0023 1366.58 15.7013 Q1372.17 20.4004 1372.17 28.2591 Q1372.17 31.9859 1370.76 35.3482 Q1369.38 38.6699 1365.69 43.2069 Q1364.68 44.3817 1359.25 50.0125 Q1353.82 55.6027 1343.94 65.6895 Z" fill="#000000" fill-rule="nonzero" fill-opacity="1" /><path clip-path="url(#clip120)" d="M1407.17 43.8551 Q1401.34 43.8551 1397.98 46.9743 Q1394.66 50.0935 1394.66 55.5622 Q1394.66 61.0309 1397.98 64.1501 Q1401.34 67.2693 1407.17 67.2693 Q1413.01 67.2693 1416.37 64.1501 Q1419.73 60.9904 1419.73 55.5622 Q1419.73 50.0935 1416.37 46.9743 Q1413.05 43.8551 1407.17 43.8551 M1398.99 40.3713 Q1393.72 39.075 1390.77 35.4697 Q1387.85 31.8644 1387.85 26.6793 Q1387.85 19.4281 1393 15.2152 Q1398.18 11.0023 1407.17 11.0023 Q1416.21 11.0023 1421.35 15.2152 Q1426.5 19.4281 1426.5 26.6793 Q1426.5 31.8644 1423.54 35.4697 Q1420.62 39.075 1415.4 40.3713 Q1421.31 41.7486 1424.59 45.759 Q1427.91 49.7694 1427.91 55.5622 Q1427.91 64.3527 1422.53 69.0517 Q1417.18 73.7508 1407.17 73.7508 Q1397.17 73.7508 1391.78 69.0517 Q1386.43 64.3527 1386.43 55.5622 Q1386.43 49.7694 1389.75 45.759 Q1393.08 41.7486 1398.99 40.3713 M1395.99 27.4489 Q1395.99 32.148 1398.91 34.7811 Q1401.87 37.4142 1407.17 37.4142 Q1412.44 37.4142 1415.4 34.7811 Q1418.39 32.148 1418.39 27.4489 Q1418.39 22.7499 1415.4 20.1168 Q1412.44 17.4837 1407.17 17.4837 Q1401.87 17.4837 1398.91 20.1168 Q1395.99 22.7499 1395.99 27.4489 Z" fill="#000000" fill-rule="nonzero" fill-opacity="1" /><path clip-path="url(#clip122)" d="M277.391 1211.21 L277.391 1486.45 L688.88 1486.45 L688.88 1211.21 L277.391 1211.21 L277.391 1211.21  Z" fill="#191970" fill-rule="evenodd" fill-opacity="1"/>
<polyline clip-path="url(#clip122)" style="stroke:#000000; stroke-linecap:round; stroke-linejoin:round; stroke-width:4; stroke-opacity:1; fill:none" points="277.391,1211.21 277.391,1486.45 688.88,1486.45 688.88,1211.21 277.391,1211.21 "/>
<path clip-path="url(#clip122)" d="M791.752 1465.17 L791.752 1486.45 L1203.24 1486.45 L1203.24 1465.17 L791.752 1465.17 L791.752 1465.17  Z" fill="#191970" fill-rule="evenodd" fill-opacity="1"/>
<polyline clip-path="url(#clip122)" style="stroke:#000000; stroke-linecap:round; stroke-linejoin:round; stroke-width:4; stroke-opacity:1; fill:none" points="791.752,1465.17 791.752,1486.45 1203.24,1486.45 1203.24,1465.17 791.752,1465.17 "/>
<path clip-path="url(#clip122)" d="M1306.11 496.514 L1306.11 1486.45 L1717.6 1486.45 L1717.6 496.514 L1306.11 496.514 L1306.11 496.514  Z" fill="#191970" fill-rule="evenodd" fill-opacity="1"/>
<polyline clip-path="url(#clip122)" style="stroke:#000000; stroke-linecap:round; stroke-linejoin:round; stroke-width:4; stroke-opacity:1; fill:none" points="1306.11,496.514 1306.11,1486.45 1717.6,1486.45 1717.6,496.514 1306.11,496.514 "/>
<path clip-path="url(#clip122)" d="M1820.47 1409.92 L1820.47 1486.45 L2231.96 1486.45 L2231.96 1409.92 L1820.47 1409.92 L1820.47 1409.92  Z" fill="#191970" fill-rule="evenodd" fill-opacity="1"/>
<polyline clip-path="url(#clip122)" style="stroke:#000000; stroke-linecap:round; stroke-linejoin:round; stroke-width:4; stroke-opacity:1; fill:none" points="1820.47,1409.92 1820.47,1486.45 2231.96,1486.45 2231.96,1409.92 1820.47,1409.92 "/>
<circle clip-path="url(#clip122)" style="fill:#191970; stroke:none; fill-opacity:0" cx="483.135" cy="1211.21" r="2"/>
<circle clip-path="url(#clip122)" style="fill:#191970; stroke:none; fill-opacity:0" cx="997.496" cy="1465.17" r="2"/>
<circle clip-path="url(#clip122)" style="fill:#191970; stroke:none; fill-opacity:0" cx="1511.86" cy="496.514" r="2"/>
<circle clip-path="url(#clip122)" style="fill:#191970; stroke:none; fill-opacity:0" cx="2026.22" cy="1409.92" r="2"/>
</svg>
